<svg data-v-0dd9719b="" version="1.0" xmlns="http://www.w3.org/2000/svg" xmlns:xlink="http://www.w3.org/1999/xlink" width="100%" height="100%" viewBox="0 0 340.000000 250.000000" preserveAspectRatio="xMidYMid meet" color-interpolation-filters="sRGB" style="margin: auto;"> <rect data-v-0dd9719b="" x="0" y="0" width="100%" height="100%" fill="#fff" fill-opacity="1" class="background"></rect> <rect data-v-0dd9719b="" x="0" y="0" width="100%" height="100%" fill="url(#watermark)" fill-opacity="1" class="watermarklayer"></rect> <g data-v-0dd9719b="" fill="#333" class="icon-text-wrapper icon-svg-group iconsvg" transform="translate(47.94999694824219,90.71036529541016)"><g class="iconsvg-imagesvg" transform="translate(0,0)"><g><rect fill="#333" fill-opacity="0" stroke-width="2" x="0" y="0" width="60" height="68.57926620185164" class="image-rect"></rect> <svg x="0" y="0" width="60" height="68.57926620185164" filtersec="colorsb920516164" class="image-svg-svg primary" style="overflow: visible;"><svg xmlns="http://www.w3.org/2000/svg" viewBox="0 0 87.48999786376953 100"><path d="M43.73 48.5l5.75-3.32-23.2-13.39a11.24 11.24 0 0 1-8.28-.74c-2.77-1.6-2.77-4.18 0-5.78a11.06 11.06 0 0 1 10 0c2.24 1.29 2.67 3.25 1.27 4.79l23.2 13.39 9.89-5.71-23.19-13.39a11.24 11.24 0 0 1-8.29-.74c-2.77-1.6-2.77-4.18 0-5.78a11 11 0 0 1 10 0c2.24 1.3 2.67 3.25 1.28 4.79L65.37 36l9.89-5.71-23.2-13.38a11.31 11.31 0 0 1-8.3-.73c-2.77-1.6-2.76-4.2 0-5.79a11.08 11.08 0 0 1 10 0c2.24 1.29 2.66 3.25 1.26 4.79l23.2 13.39 7.49-4.32L43.73 0l-42 24.25z" fill="#0087ff"></path><path d="M42 51.5l-5.74-3.32V75a11.24 11.24 0 0 1 3.5 7.54c0 3.2-2.24 4.5-5 2.9a11.07 11.07 0 0 1-5-8.68c0-2.59 1.47-3.93 3.51-3.49V46.45l-9.89-5.71v26.79a11.25 11.25 0 0 1 3.51 7.54c0 3.2-2.24 4.5-5 2.9a11.07 11.07 0 0 1-5-8.68c0-2.58 1.48-3.93 3.51-3.49V39l-9.92-5.7v26.79A11.26 11.26 0 0 1 14 67.64c0 3.2-2.24 4.48-5 2.89a11.09 11.09 0 0 1-5-8.68c0-2.59 1.48-3.93 3.51-3.49V31.57L0 27.25v48.5L42 100z" fill="#2a3294"></path><path d="M45.46 51.5V100l5.75-3.32V67.89c-2 .44-3.51-.9-3.51-3.49a11.07 11.07 0 0 1 5-8.68c2.77-1.6 5-.3 5 2.9a11.25 11.25 0 0 1-3.51 7.54V95l9.89-5.71V60.45c-2 .44-3.51-.9-3.51-3.49a11.07 11.07 0 0 1 5-8.68c2.77-1.6 5-.3 5 2.9a11.25 11.25 0 0 1-3.51 7.54v28.79L77 81.8V53c-2 .44-3.52-.9-3.52-3.49a11.08 11.08 0 0 1 5-8.68c2.76-1.59 5-.31 5 2.89A11.27 11.27 0 0 1 80 51.28v28.79l7.49-4.32v-48.5z" fill="#ff006f"></path></svg></svg> <!----></g></g> <g transform="translate(67,22.86463451385498)"><g data-gra="path-name" fill-rule="" class="tp-name iconsvg-namesvg"><g transform="scale(1)"><g><path d="M12.42-22.22L9.34-7.94Q9.17-7.17 9.06-6.61 8.96-6.05 8.96-5.56L8.96-5.56Q8.96-4.34 9.82-3.6 10.67-2.87 12.35-2.87L12.35-2.87Q13.58-2.87 14.36-3.29 15.15-3.71 15.66-4.41 16.17-5.11 16.46-6.02 16.76-6.93 16.97-7.94L16.97-7.94 19.95-22.22 23.13-22.22 20.09-7.87Q19.74-6.19 19.07-4.72 18.41-3.25 17.16-2.13 15.92-1.01 13.96-0.37 12 0.28 9.1 0.28L9.1 0.28Q5.07 0.28 3.15-1.03 1.22-2.34 1.22-5.07L1.22-5.07Q1.22-6.3 1.54-8.19 1.85-10.08 2.34-12.28L2.34-12.28 4.48-22.22 12.42-22.22ZM43.85-16.94L43.85-16.94Q43.85-14.87 42.69-13.12 41.54-11.37 38.88-10.46L38.88-10.46 42.94 0 35.13 0 32.05-9.69 31.67-9.69 29.6 0 22.05 0 26.77-22.22 35.97-22.22Q37.58-22.22 39.02-22.03 40.45-21.84 41.52-21.26 42.59-20.68 43.22-19.65 43.85-18.62 43.85-16.94ZM32.12-11.93L33.77-11.93Q34.68-11.93 35.32-12.54 35.97-13.16 36.37-14.03 36.78-14.91 36.95-15.9 37.13-16.9 37.13-17.64L37.13-17.64Q37.13-18.55 36.81-19.19 36.5-19.84 35.45-19.84L35.45-19.84 33.87-19.84 32.12-11.93ZM65.65-17.15L65.65-17.15Q65.65-16.13 65.35-15.33 65.05-14.52 64.53-13.89 64-13.26 63.3-12.77 62.6-12.28 61.76-11.86L61.76-11.86Q62.15-11.72 62.67-11.42 63.2-11.13 63.69-10.6 64.18-10.08 64.51-9.26 64.84-8.43 64.84-7.24L64.84-7.24Q64.84-5.67 64.18-4.34 63.51-3.01 62.2-2.05 60.89-1.08 58.98-0.54 57.07 0 54.59 0L54.59 0 44.2 0 48.92-22.22 58.12-22.22Q59.49-22.22 60.83-22.03 62.18-21.84 63.25-21.28 64.32-20.72 64.98-19.72 65.65-18.72 65.65-17.15ZM54.52-12.91L56.13-12.91Q56.9-12.91 57.44-13.37 57.98-13.82 58.33-14.5 58.68-15.19 58.86-15.97 59.03-16.76 59.03-17.39L59.03-17.39Q59.03-18.41 58.56-19.12 58.09-19.84 57.07-19.84L57.07-19.84 56.02-19.84 54.52-12.91ZM52.21-2.2L53.61-2.2Q54.66-2.2 55.36-2.8 56.06-3.39 56.51-4.27 56.97-5.14 57.16-6.11 57.35-7.07 57.35-7.8L57.35-7.8Q57.35-9.03 56.84-9.75 56.34-10.46 55.22-10.46L55.22-10.46 53.92-10.46 52.21-2.2ZM82.93-22.22L85.35 0 77.16 0 76.67-5.56 70.19-5.56 67.71 0 64.32 0 74.64-22.22 82.93-22.22ZM75.62-17.64L71.35-8.12 76.42-8.12 75.62-17.64ZM110.47-22.22L105.68 0 97.49 0 93.6-16.06 90.17 0 87.03 0 91.75-22.22 100.11-22.22 103.79-5.95 107.25-22.22 110.47-22.22ZM121.88-22.22L117.12 0 109.56 0 114.28-22.22 121.88-22.22ZM140.56-15.78L134.76-15.78Q134.86-16.31 134.86-17.22L134.86-17.22Q134.86-17.74 134.79-18.25 134.72-18.76 134.55-19.16 134.37-19.56 134.02-19.79 133.67-20.02 133.11-20.02L133.11-20.02Q132.48-20.02 131.96-19.74 131.43-19.46 131.03-19.02 130.63-18.58 130.4-18 130.17-17.43 130.17-16.8L130.17-16.8Q130.17-15.89 130.64-15.4 131.12-14.91 131.89-14.59 132.66-14.28 133.64-14.07 134.62-13.86 135.66-13.58L135.66-13.58Q136.54-13.33 137.41-12.95 138.29-12.56 138.97-11.91 139.65-11.27 140.07-10.24 140.49-9.2 140.49-7.66L140.49-7.66Q140.49-5.46 139.62-3.95 138.74-2.45 137.2-1.5 135.66-0.56 133.55-0.14 131.43 0.28 128.95 0.28L128.95 0.28Q126.43 0.28 124.83-0.05 123.24-0.38 122.33-0.77L122.33-0.77Q121.25-1.22 120.72-1.82L120.72-1.82 121.91-6.61 128.07-6.61Q128.04-6.3 128-5.76 127.97-5.21 127.97-4.9L127.97-4.9Q127.97-4.48 128.07-4.02 128.18-3.57 128.4-3.18 128.63-2.8 129.05-2.55 129.47-2.31 130.1-2.31L130.1-2.31Q130.8-2.31 131.34-2.62 131.89-2.94 132.25-3.41 132.62-3.88 132.81-4.46 133.01-5.04 133.01-5.6L133.01-5.6Q133.01-6.37 132.64-6.89 132.27-7.42 131.64-7.79 131.01-8.15 130.19-8.42 129.37-8.68 128.49-8.96L128.49-8.96Q127.65-9.2 126.72-9.55 125.8-9.9 125.03-10.53 124.26-11.16 123.75-12.12 123.24-13.09 123.24-14.59L123.24-14.59Q123.24-16.83 124.38-18.35 125.52-19.88 127.25-20.82 128.98-21.77 131.05-22.17 133.11-22.57 134.97-22.57L134.97-22.57Q137.41-22.57 139.18-21.99 140.95-21.42 141.86-20.65L141.86-20.65 140.56-15.78ZM163.06-22.22L162.47-19.56 156.84-19.56 152.67 0 145.11 0 149.28-19.56 143.71-19.56 144.34-22.22 163.06-22.22ZM175.91-22.22L178.32 0 170.13 0 169.64-5.56 163.17-5.56 160.68 0 157.29 0 167.61-22.22 175.91-22.22ZM168.59-17.64L164.32-8.12 169.4-8.12 168.59-17.64Z" transform="translate(-1.2200000286102295, 22.56999969482422)"></path></g> <!----> <!----> <!----> <!----> <!----> <!----> <!----></g></g> <!----></g></g><defs v-gra="od"></defs></svg>